<?xml version="1.0" standalone="no"?>
<!DOCTYPE svg PUBLIC "-//W3C//DTD SVG 20010904//EN"
 "http://www.w3.org/TR/2001/REC-SVG-20010904/DTD/svg10.dtd">
<svg version="1.0" xmlns="http://www.w3.org/2000/svg"
 width="352.000000pt" height="325.000000pt" viewBox="0 0 352.000000 325.000000"
 preserveAspectRatio="xMidYMid meet">

<g transform="translate(0.000000,325.000000) scale(0.100000,-0.100000)"
fill="#fff" stroke="none">
<path d="M1330 3150 c-25 -5 -83 -29 -130 -52 -68 -34 -104 -61 -181 -138
-362 -357 -474 -944 -257 -1350 29 -54 36 -76 26 -79 -24 -7 -105 -98 -112
-125 -8 -34 16 -76 44 -76 19 0 19 -1 3 -36 -16 -32 -16 -38 -2 -62 8 -15 30
-35 49 -45 67 -35 246 -3 326 58 l33 25 38 -38 c55 -55 93 -68 151 -53 26 7
65 16 87 20 22 5 45 10 50 12 6 2 26 -5 45 -16 28 -15 62 -20 170 -23 156 -6
276 -4 306 3 19 4 21 1 20 -33 -1 -45 -12 -49 -141 -51 -92 -1 -203 20 -277
53 -21 9 -38 15 -38 13 0 -8 118 -86 168 -111 226 -114 526 -78 747 89 33 25
75 48 95 51 47 9 148 55 205 94 54 37 105 111 105 153 0 29 -48 88 -79 98 -12
4 -10 16 7 69 28 88 42 171 41 249 l0 66 -15 -55 c-16 -62 -80 -200 -118 -257
-23 -34 -30 -37 -71 -38 -25 0 -45 1 -45 1 0 1 16 26 36 55 139 203 180 426
107 579 -73 155 -232 243 -465 257 -290 17 -607 -98 -796 -289 -98 -99 -151
-191 -178 -305 -19 -80 -15 -225 9 -290 l15 -43 -36 -10 c-43 -11 -45 -9 -63
74 -34 151 -10 309 68 458 116 222 424 418 736 468 91 15 90 6 15 150 -174
337 -455 530 -698 480z m-92 -270 c2 -20 -8 -35 -50 -70 -105 -87 -183 -196
-247 -346 -40 -92 -63 -113 -91 -79 -18 21 -2 73 58 189 58 113 115 188 204
271 56 51 77 65 97 63 19 -2 27 -10 29 -28z m-370 -641 c2 -25 -2 -58 -8 -73
-8 -22 -15 -27 -38 -24 -22 2 -28 8 -30 35 -2 17 2 50 8 73 10 37 14 41 38 38
24 -3 27 -7 30 -49z m1157 -168 c120 -59 184 -159 193 -297 9 -151 -39 -239
-163 -297 -42 -20 -89 -46 -105 -57 -21 -15 -42 -20 -87 -19 -32 1 -46 4 -31
6 31 5 68 46 68 74 0 11 -9 28 -20 39 -25 25 -101 27 -202 4 l-72 -16 -23 28
c-54 67 -68 113 -68 219 0 90 3 105 27 152 74 140 189 207 342 199 62 -3 91
-11 141 -35z m684 -561 c69 -11 105 -37 109 -78 7 -68 -134 -175 -273 -207
-75 -18 -111 -14 -150 16 -33 27 -32 64 3 120 50 78 186 174 232 164 14 -4 49
-10 79 -15z m-1645 -21 c21 -6 50 -22 63 -36 53 -52 3 -152 -101 -203 -115
-57 -277 -52 -276 8 0 9 20 48 45 87 24 38 42 71 40 73 -2 2 -25 -7 -51 -22
-79 -44 -96 -29 -45 42 28 38 56 53 121 66 36 7 159 -2 204 -15z m780 15 c9
-3 16 -14 16 -25 0 -28 -36 -42 -89 -35 -32 4 -53 2 -66 -7 -21 -16 -13 -37
15 -37 28 0 50 -11 50 -25 0 -8 -28 -19 -72 -29 -40 -9 -79 -20 -87 -25 -48
-30 78 -43 165 -16 61 19 74 19 74 1 0 -59 -223 -118 -319 -85 -80 28 -61 108
36 148 25 10 28 16 25 45 -4 31 -1 35 41 55 38 18 90 30 184 40 6 0 18 -2 27
-5z m467 -4 c25 -14 24 -46 -1 -60 -11 -6 -48 -11 -82 -11 -41 -1 -75 -7 -100
-20 -50 -25 -108 -77 -108 -96 0 -27 113 -11 192 27 54 25 71 29 87 20 27 -14
26 -32 -1 -88 -32 -64 -109 -129 -174 -148 -66 -19 -88 -16 -92 13 -4 25 25
47 101 78 27 11 56 30 64 42 14 21 13 21 -49 -4 -39 -16 -90 -28 -134 -31 -63
-4 -74 -2 -93 17 -51 51 -9 124 106 183 65 34 171 72 223 81 14 2 29 5 33 6 5
0 17 -4 28 -9z m-847 -21 c13 -20 12 -28 -10 -87 -48 -128 -99 -182 -171 -182
-27 0 -70 22 -85 44 -14 22 24 47 66 44 40 -3 42 -2 84 62 23 35 42 71 42 78
0 20 -44 8 -103 -28 -27 -17 -53 -30 -58 -30 -13 0 -11 25 5 64 16 39 55 53
153 55 53 1 64 -2 77 -20z m-10 -235 c4 -9 4 -19 1 -22 -7 -8 -35 19 -29 29 8
14 21 11 28 -7z"/>
<path d="M2594 1425 c-65 -39 -134 -106 -134 -130 0 -43 133 11 214 87 49 46
50 48 32 63 -29 22 -46 19 -112 -20z"/>
<path d="M891 1379 c-17 -30 -31 -60 -31 -67 0 -34 108 -30 179 6 77 40 42 96
-69 109 l-48 6 -31 -54z m79 -19 c29 -22 27 -25 -22 -33 -43 -6 -42 -7 -26 28
13 30 16 30 48 5z"/>
<path d="M854 955 c-29 -14 -82 -53 -118 -86 -64 -59 -66 -60 -66 -34 0 36
-33 89 -63 102 -44 20 -111 25 -209 14 -122 -14 -143 -23 -169 -79 -28 -56
-18 -95 24 -100 16 -2 27 -6 25 -10 -2 -4 -14 -28 -27 -53 -39 -77 -13 -122
70 -121 46 1 76 15 84 42 6 18 11 16 63 -29 79 -67 95 -75 137 -61 19 6 45 24
58 39 19 23 27 27 42 18 10 -5 51 -7 95 -4 78 5 174 41 258 97 l32 22 0 -32
c0 -47 44 -86 106 -96 64 -9 200 9 263 37 l50 21 27 -31 c45 -54 111 -42 257
47 27 16 29 16 43 -3 49 -69 86 -82 162 -60 44 13 53 13 81 -1 29 -14 36 -15
79 -1 43 15 52 14 114 -3 74 -20 113 -16 157 19 24 18 25 18 57 -1 67 -39 183
-34 297 15 l48 20 15 -21 c49 -70 321 -46 407 36 35 33 37 85 5 120 -18 20
-20 26 -9 30 55 19 83 109 42 132 -47 24 -228 -2 -341 -51 -59 -25 -79 -62
-62 -114 l10 -34 -29 14 c-15 8 -37 15 -49 15 -15 0 -20 6 -20 25 0 20 5 25
23 25 28 0 67 38 67 66 0 11 -7 30 -16 42 -13 18 -25 22 -74 22 -149 0 -260
-51 -260 -119 0 -11 -8 -22 -19 -26 -10 -3 -26 -14 -36 -25 -10 -11 -31 -20
-47 -20 -16 0 -39 -7 -52 -15 -21 -14 -56 -12 -56 4 0 4 25 32 55 63 61 63 67
87 30 123 -38 39 -88 34 -155 -16 -47 -35 -59 -40 -90 -35 -19 4 -46 8 -60 9
-14 1 -33 12 -42 24 -22 26 -70 44 -89 32 -8 -5 -28 -9 -45 -9 -23 0 -54 -18
-120 -69 -80 -61 -96 -69 -158 -80 -38 -7 -78 -17 -88 -22 -13 -7 -25 -5 -43
8 -28 20 -32 33 -11 33 19 0 66 57 66 81 0 36 -35 59 -92 59 -71 -1 -222 -35
-280 -63 l-47 -23 -21 28 c-26 35 -68 57 -133 69 -29 5 -63 11 -77 14 -16 4
-44 -3 -76 -20z m155 -35 c69 -11 105 -37 109 -78 7 -72 -150 -184 -295 -212
-55 -11 -66 -10 -99 6 -48 24 -58 42 -50 88 14 74 197 225 256 211 14 -3 49
-10 79 -15z m1391 -30 c0 -10 -7 -23 -15 -30 -8 -7 -15 -21 -15 -32 0 -13 -6
-18 -19 -16 -12 2 -31 -13 -56 -42 l-37 -45 28 -12 c39 -16 105 -16 128 2 21
16 36 12 36 -10 0 -22 -58 -82 -86 -89 -14 -4 -54 2 -95 14 -66 20 -73 20
-104 6 -45 -22 -72 -20 -85 5 -20 37 25 84 94 98 16 4 35 16 44 29 14 22 14
22 -30 22 -50 0 -88 22 -88 51 0 16 4 18 28 12 56 -16 99 -8 141 25 22 18 51
36 63 41 29 11 68 -6 68 -29z m-1801 6 c11 -10 24 -31 30 -48 9 -27 8 -33 -17
-56 -15 -15 -42 -35 -60 -44 -28 -15 -31 -21 -23 -37 14 -25 78 -64 91 -56 6
4 18 4 26 1 13 -5 13 -9 0 -34 -21 -41 -59 -59 -91 -42 -34 18 -138 127 -133
140 2 6 26 27 53 48 68 51 72 102 6 85 -21 -5 -82 -116 -97 -176 -8 -36 -46
-61 -79 -53 -49 13 -41 48 38 164 16 24 27 45 25 47 -2 2 -27 -5 -56 -15 -43
-15 -54 -16 -58 -5 -7 17 22 74 42 82 71 27 273 26 303 -1z m925 18 c22 -8 20
-30 -4 -54 -20 -20 -74 -27 -85 -11 -6 10 -48 1 -85 -19 -28 -15 -18 -22 57
-40 60 -14 103 -43 103 -70 0 -54 -147 -106 -280 -98 -75 4 -96 16 -102 58 -3
21 1 25 22 22 14 -2 72 -5 128 -9 131 -7 153 7 50 32 -122 29 -138 38 -138 78
0 32 4 36 48 55 44 19 159 47 227 55 17 2 33 5 37 6 3 0 13 -2 22 -5z m513
-20 c3 -7 -11 -39 -31 -71 -63 -105 -55 -148 19 -104 42 24 65 27 65 7 0 -38
-91 -106 -143 -106 -32 0 -73 33 -81 66 -7 24 -10 26 -47 20 -22 -3 -58 -20
-80 -36 -57 -41 -132 -65 -159 -50 -30 16 -44 59 -29 87 14 26 54 42 130 50
50 5 66 13 125 60 105 84 119 92 133 83 10 -6 -1 -24 -43 -69 -31 -33 -56 -63
-56 -66 0 -3 8 -5 18 -5 10 0 29 21 46 49 43 73 81 110 107 104 11 -3 23 -12
26 -19z m797 20 c23 -9 20 -41 -5 -55 -13 -7 -40 -9 -65 -5 -53 7 -74 0 -74
-25 0 -13 7 -19 21 -19 27 0 61 -19 54 -29 -3 -5 -38 -16 -77 -25 -82 -19
-104 -29 -94 -45 10 -16 126 -14 176 4 53 19 70 19 70 1 0 -40 -139 -96 -239
-96 -65 0 -100 15 -120 51 -13 24 -13 29 3 54 10 14 39 37 65 49 41 18 46 24
37 39 -25 40 40 81 149 96 39 4 73 9 77 10 3 0 13 -2 22 -5z m436 -9 c26 -32
-66 -85 -96 -55 -12 12 -77 -5 -94 -25 -9 -11 1 -17 62 -35 89 -27 100 -35 96
-74 -2 -24 -12 -35 -42 -53 -69 -38 -250 -57 -299 -32 -28 15 -37 28 -37 58 0
20 4 22 23 16 39 -12 234 -18 241 -7 3 5 -30 19 -82 32 -48 12 -95 29 -104 37
-25 22 -22 60 5 77 43 28 202 68 298 75 9 0 22 -6 29 -14z m-1218 -131 c-15
-6 -28 -10 -30 -9 -2 2 4 18 13 36 l17 33 13 -25 c12 -22 11 -25 -13 -35z
m-892 -19 c0 -8 -7 -11 -20 -8 -16 4 -18 8 -9 19 13 16 29 10 29 -11z m-526
-22 c-9 -35 -24 -45 -42 -30 -12 9 -9 15 14 34 36 29 36 29 28 -4z"/>
<path d="M907 844 c-59 -30 -147 -114 -147 -138 0 -44 133 10 214 86 49 46 50
48 32 63 -27 20 -43 18 -99 -11z m23 -45 c-31 -24 -81 -52 -85 -47 -5 5 87 67
100 67 6 0 -1 -8 -15 -20z"/>
<path d="M730 426 c0 -23 55 -146 65 -146 12 0 55 111 55 142 0 23 -17 -7 -35
-60 -9 -30 -21 -50 -25 -45 -4 4 -15 32 -25 61 -9 28 -21 52 -26 52 -5 0 -9
-2 -9 -4z"/>
<path d="M890 355 l0 -75 45 0 c25 0 45 5 45 10 0 6 -16 10 -35 10 -30 0 -35
3 -35 24 0 20 6 25 33 29 l32 4 -32 1 c-28 2 -33 6 -33 27 0 22 4 25 35 25 19
0 35 5 35 10 0 6 -20 10 -45 10 l-45 0 0 -75z"/>
<path d="M1031 353 c1 -50 4 -69 8 -53 4 14 6 40 5 58 -1 17 0 32 2 32 2 0 20
-25 40 -55 20 -30 41 -55 45 -55 5 0 8 35 7 78 -2 69 -2 71 -5 20 -2 -32 -7
-58 -11 -58 -4 0 -22 25 -40 55 -18 30 -37 55 -43 55 -5 0 -9 -35 -8 -77z"/>
<path d="M1190 420 c0 -5 9 -10 20 -10 18 0 20 -7 20 -65 0 -37 4 -65 10 -65
6 0 10 28 10 65 0 58 2 65 20 65 11 0 20 5 20 10 0 6 -22 10 -50 10 -27 0 -50
-4 -50 -10z"/>
<path d="M1369 403 c-5 -16 -17 -47 -26 -71 -9 -23 -13 -46 -9 -49 4 -4 9 3
13 15 7 30 69 32 78 2 3 -11 11 -20 17 -20 6 0 7 7 3 18 -4 9 -16 43 -27 75
-22 63 -34 70 -49 30z m36 -40 c5 -20 3 -23 -18 -23 -24 0 -25 2 -14 30 12 31
20 29 32 -7z"/>
<path d="M1550 355 l0 -75 30 0 c60 0 89 27 90 83 0 31 -45 67 -85 67 l-35 0
0 -75z m88 43 c7 -7 12 -26 12 -43 0 -38 -16 -55 -52 -55 -27 0 -28 1 -28 55
0 54 1 55 28 55 15 0 33 -5 40 -12z"/>
<path d="M1710 355 l0 -75 45 0 c25 0 45 5 45 10 0 6 -16 10 -35 10 -30 0 -35
3 -35 24 0 20 6 25 33 29 l32 4 -32 1 c-28 2 -33 6 -33 27 0 22 4 25 35 25 19
0 35 5 35 10 0 6 -20 10 -45 10 l-45 0 0 -75z"/>
<path d="M1910 355 c0 -43 4 -75 10 -75 6 0 10 16 10 35 0 33 2 35 35 35 33 0
35 -2 35 -35 0 -19 5 -35 10 -35 6 0 10 32 10 75 0 43 -4 75 -10 75 -5 0 -10
-16 -10 -35 0 -33 -2 -35 -35 -35 -33 0 -35 2 -35 35 0 19 -4 35 -10 35 -6 0
-10 -32 -10 -75z"/>
<path d="M2070 371 c0 -66 15 -91 55 -91 41 0 55 25 54 93 l-1 62 -8 -52 c-11
-77 -16 -85 -47 -81 -27 3 -28 6 -31 66 -4 79 -22 82 -22 3z"/>
<path d="M2230 355 l0 -75 45 0 c25 0 45 5 45 10 0 6 -16 10 -35 10 -30 0 -35
3 -35 24 0 20 6 25 33 29 l32 4 -32 1 c-28 2 -33 6 -33 27 0 22 4 25 35 25 19
0 35 5 35 10 0 6 -20 10 -45 10 l-45 0 0 -75z"/>
<path d="M2376 356 c15 -43 31 -76 39 -76 8 0 24 32 38 75 14 41 22 75 17 75
-5 0 -16 -24 -25 -52 -10 -29 -21 -57 -25 -61 -4 -5 -16 17 -27 49 -11 32 -24
59 -31 62 -6 2 -1 -28 14 -72z"/>
<path d="M2530 410 c-12 -12 -20 -33 -20 -55 0 -65 67 -98 110 -55 43 43 13
130 -45 130 -14 0 -34 -9 -45 -20z m78 -12 c7 -7 12 -26 12 -43 0 -36 -15 -55
-45 -55 -30 0 -45 19 -45 55 0 36 15 55 45 55 12 0 26 -5 33 -12z"/>
<path d="M2696 414 c-27 -26 -15 -51 30 -63 39 -10 47 -51 10 -51 -14 0 -29 8
-35 17 -12 22 -24 13 -15 -11 8 -20 52 -32 73 -19 9 6 17 21 19 35 3 21 -4 27
-38 40 -22 9 -40 21 -40 28 0 17 31 24 52 11 25 -15 35 -7 18 14 -16 20 -54
19 -74 -1z"/>
</g>
</svg>
