<?xml version="1.0" standalone="no"?>
<!DOCTYPE svg PUBLIC "-//W3C//DTD SVG 20010904//EN"
 "http://www.w3.org/TR/2001/REC-SVG-20010904/DTD/svg10.dtd">
<svg version="1.0" xmlns="http://www.w3.org/2000/svg"
 width="1461.000000pt" height="769.000000pt" viewBox="0 0 1461.000000 769.000000"
 preserveAspectRatio="xMidYMid meet">

<g transform="translate(0.000000,769.000000) scale(0.100000,-0.100000)"
fill="#fff" stroke="none">
<path d="M9661 4954 c-108 -29 -177 -100 -206 -210 -21 -82 -22 -852 -1 -931
25 -95 76 -156 161 -195 42 -19 67 -22 160 -22 93 0 118 3 163 23 62 28 106
75 140 150 22 47 26 73 30 192 l5 139 -107 0 -106 0 0 -115 c0 -161 -26 -205
-120 -205 -54 0 -87 20 -106 66 -20 49 -20 819 0 868 18 43 51 66 98 66 98 0
128 -43 128 -183 l0 -98 103 3 102 3 -1 105 c-2 123 -12 169 -55 233 -69 104
-236 152 -388 111z"/>
<path d="M11011 4955 c-69 -20 -112 -46 -155 -97 -70 -81 -71 -91 -71 -583 0
-437 0 -440 23 -497 58 -144 218 -215 404 -178 111 22 177 71 222 169 20 45
21 59 21 511 0 452 -1 466 -21 511 -51 110 -144 167 -286 174 -57 4 -100 0
-137 -10z m173 -186 c54 -25 56 -40 56 -494 0 -351 -2 -421 -15 -445 -20 -39
-43 -50 -103 -50 -61 0 -97 25 -112 78 -14 50 -13 794 1 845 18 64 104 97 173
66z"/>
<path d="M3552 4279 l3 -672 83 -1 c46 0 88 1 93 5 5 3 10 213 11 475 l3 469
38 -220 c70 -400 129 -720 134 -725 7 -8 193 -8 198 0 3 4 21 106 40 226 75
468 117 719 121 723 2 2 4 -211 4 -475 l0 -479 102 1 103 0 3 672 2 672 -155
0 c-85 0 -155 -2 -155 -4 0 -2 -5 -28 -10 -57 -6 -30 -22 -128 -36 -219 -34
-231 -105 -654 -110 -659 -7 -7 -13 25 -53 259 -22 129 -56 335 -77 458 l-38
222 -153 0 -153 0 2 -671z"/>
<path d="M4732 4383 c4 -641 2 -622 81 -703 68 -70 112 -85 248 -85 109 0 119
2 174 30 37 19 72 46 92 73 63 82 63 87 63 699 l0 553 -100 0 -99 0 -3 -547
c-3 -584 -2 -576 -53 -609 -28 -18 -104 -21 -134 -5 -51 28 -51 30 -51 616 l0
545 -110 0 -111 0 3 -567z"/>
<path d="M5642 4279 l3 -671 290 -1 290 0 0 91 0 92 -185 2 -185 3 -3 578 -2
577 -105 0 -105 0 2 -671z"/>
<path d="M6240 4860 l0 -89 118 -3 117 -3 3 -580 2 -581 108 1 107 1 3 574 c2
444 5 576 15 582 6 4 58 8 115 8 l102 0 0 90 0 90 -345 0 -345 0 0 -90z"/>
<path d="M7120 4281 c0 -526 3 -670 13 -673 6 -2 55 -4 107 -4 l95 1 3 673 2
672 -110 0 -110 0 0 -669z"/>
<path d="M7592 4278 l3 -672 95 0 95 0 0 482 c0 265 2 482 5 482 5 0 22 -55
164 -555 52 -181 101 -348 108 -369 l13 -40 100 -1 c55 -1 106 0 113 3 9 3 12
147 12 673 l0 669 -100 0 -100 0 -2 -402 -3 -403 -43 155 c-24 85 -61 214 -82
285 -21 72 -53 183 -70 248 l-32 117 -139 0 -139 0 2 -672z"/>
<path d="M8687 4783 c-36 -223 -128 -764 -167 -987 -17 -98 -29 -180 -26 -183
8 -8 173 -11 185 -4 6 4 19 58 29 121 l18 115 141 3 141 3 5 -33 c3 -18 11
-69 18 -113 6 -44 15 -84 20 -89 8 -10 208 -15 214 -6 2 3 -3 41 -11 85 -25
139 -144 843 -175 1030 -16 99 -31 190 -34 203 -5 22 -8 22 -168 22 l-162 0
-28 -167z m207 -210 c19 -135 72 -469 82 -515 l6 -28 -111 0 c-109 0 -111 0
-111 23 0 13 23 160 50 327 28 167 50 308 50 312 0 4 4 8 8 8 4 0 16 -57 26
-127z"/>
<path d="M10332 4278 l3 -673 105 2 105 1 3 671 2 671 -110 0 -110 0 2 -672z"/>
<path d="M11696 4935 c-3 -8 -5 -309 -6 -670 0 -523 2 -655 12 -656 65 -4 165
-4 176 -1 9 3 12 109 12 485 0 271 4 477 9 472 4 -6 14 -32 20 -60 7 -27 32
-117 56 -200 61 -210 139 -482 171 -597 15 -54 29 -99 33 -99 17 -5 188 -6
204 -2 16 4 17 45 17 674 l0 669 -95 0 -95 0 -2 -397 c-2 -316 -5 -393 -15
-373 -6 14 -52 169 -102 345 -50 176 -97 344 -106 373 l-16 52 -133 0 c-109 0
-135 -3 -140 -15z"/>
<path d="M12816 4923 c-7 -34 -122 -714 -177 -1048 -22 -132 -40 -246 -42
-254 -1 -10 18 -14 91 -15 51 -1 96 1 101 4 4 3 13 48 20 100 21 158 1 141
164 138 l141 -3 21 -120 20 -119 103 -1 c57 0 106 3 108 6 1 3 -17 125 -41
270 -113 679 -175 1045 -180 1057 -3 9 -45 12 -164 12 l-159 0 -6 -27z m177
-320 c49 -308 87 -550 87 -560 0 -10 -29 -13 -110 -13 -60 0 -110 2 -110 5 0
2 13 87 29 187 17 101 40 249 52 331 13 81 26 147 30 147 3 0 14 -44 22 -97z"/>
<path d="M13572 4280 l3 -671 280 0 c154 0 286 0 293 1 9 0 12 25 12 90 l0 90
-187 2 -188 3 -3 578 -2 577 -105 0 -105 0 2 -670z"/>
<path d="M1840 4843 c-78 -13 -195 -51 -261 -83 -115 -57 -154 -85 -248 -175
-104 -100 -189 -231 -227 -350 l-27 -81 -75 -35 c-92 -42 -254 -145 -347 -220
-77 -63 -194 -181 -155 -157 352 215 797 387 1175 454 136 24 386 24 472 1 82
-22 137 -50 179 -93 19 -19 44 -34 55 -34 12 0 50 -14 86 -31 81 -38 133 -105
156 -200 l7 -26 -93 -6 c-348 -23 -964 -309 -1387 -646 -95 -75 -360 -328
-360 -342 0 -5 37 19 83 52 332 241 682 446 967 567 104 44 238 87 246 79 3
-2 -26 -22 -63 -42 -171 -94 -369 -230 -477 -327 l-49 -43 89 -43 c415 -196
921 -60 1177 319 127 188 184 415 159 630 -50 421 -363 756 -776 829 -57 10
-254 12 -306 3z"/>
<path d="M1921 4048 c-57 -11 -55 -28 4 -28 16 0 67 -9 112 -21 l82 -21 41 32
c22 17 40 36 40 41 0 12 -209 10 -279 -3z"/>
<path d="M1512 3719 c-142 -21 -384 -126 -567 -246 -276 -182 -527 -441 -719
-743 -33 -51 -32 -51 59 50 251 280 649 574 1203 889 50 29 92 54 92 57 0 2
-1 3 -2 3 -2 -1 -31 -6 -66 -10z"/>
<path d="M3614 3333 c-12 -2 -32 -15 -45 -29 l-24 -26 0 -310 0 -310 28 -24
28 -24 2411 0 2412 0 43 21 c23 11 52 34 63 49 24 34 168 475 177 541 5 41 2
49 -25 80 l-30 34 -2509 1 c-1379 1 -2518 -1 -2529 -3z m321 -93 c21 -20 52
-107 41 -117 -2 -3 -23 -7 -45 -10 -39 -5 -41 -4 -41 20 0 46 -49 74 -78 45
-7 -7 -12 -26 -12 -44 0 -25 15 -48 76 -115 76 -85 113 -145 114 -186 0 -43
-31 -102 -67 -124 -28 -17 -45 -20 -90 -17 -49 4 -61 10 -90 41 -26 29 -33 45
-33 77 0 31 4 40 18 40 9 0 27 3 40 6 18 5 22 2 22 -18 0 -56 53 -86 92 -51
38 34 23 68 -78 176 -80 85 -99 126 -91 194 11 105 146 155 222 83z m2569 -10
l31 -30 0 -220 0 -220 -32 -31 c-59 -60 -176 -50 -220 18 -15 23 -19 56 -22
196 -4 200 2 247 35 286 48 57 152 58 208 1z m1778 14 c30 -27 48 -76 48 -129
l0 -45 -45 0 -45 0 0 44 c0 70 -51 102 -84 54 -13 -18 -16 -54 -16 -189 0
-149 2 -169 19 -190 16 -20 23 -22 47 -14 27 10 29 15 34 70 5 64 2 61 68 57
20 -2 22 -7 22 -52 0 -101 -51 -160 -138 -160 -61 0 -100 24 -123 73 -16 36
-19 67 -19 212 0 94 5 187 10 207 12 41 59 84 100 90 40 6 99 -8 122 -28z
m-3994 -21 l3 -43 -80 0 -81 0 0 -75 0 -74 63 -3 62 -3 0 -40 0 -40 -62 -3
-63 -3 0 -79 0 -80 81 0 80 0 -3 -42 -3 -43 -120 0 -120 0 -3 288 -2 288 122
-3 123 -3 3 -42z m251 29 c59 -30 76 -62 76 -151 0 -77 -2 -83 -49 -146 -6 -8
3 -55 26 -134 39 -133 39 -135 -24 -129 l-33 3 -30 115 c-26 100 -33 115 -52
118 -22 3 -22 1 -25 -115 l-3 -118 -40 0 -40 0 -3 275 c-1 151 0 280 3 287 7
21 152 17 194 -5z m201 13 c0 -13 62 -420 64 -423 2 -1 15 87 30 195 15 109
30 206 32 216 4 12 16 17 45 17 36 0 39 -2 39 -27 0 -23 -72 -469 -86 -531 -4
-21 -9 -23 -62 -20 l-57 3 -47 275 c-25 151 -47 281 -47 288 -1 8 14 12 44 12
25 0 45 -2 45 -5z m350 -285 l0 -290 -40 0 -40 0 0 290 0 290 40 0 40 0 0
-290z m280 275 c46 -24 66 -75 62 -157 -2 -26 -5 -28 -42 -28 -40 0 -40 0 -40
38 0 67 -47 104 -84 66 -13 -13 -16 -45 -16 -194 0 -149 3 -181 16 -194 39
-39 84 -1 84 70 0 46 10 53 64 45 28 -4 28 -4 23 -60 -3 -31 -11 -68 -18 -84
-29 -63 -130 -87 -197 -47 -54 33 -62 66 -62 270 0 198 7 230 55 268 33 27
111 30 155 7z m370 -30 l0 -45 -80 0 -80 0 0 -75 0 -75 65 0 65 0 0 -45 0 -45
-65 0 -65 0 0 -80 0 -80 80 0 80 0 0 -45 0 -46 -122 3 -123 3 -3 275 c-1 151
0 280 3 287 3 10 37 13 125 13 l120 0 0 -45z m425 12 c24 -24 35 -46 40 -79
11 -73 6 -83 -43 -86 l-42 -3 0 45 c0 68 -40 97 -82 59 -16 -14 -18 -34 -18
-191 0 -149 2 -178 17 -194 39 -43 83 -10 83 63 0 50 2 52 45 52 43 0 45 -2
44 -50 0 -27 -5 -64 -12 -83 -33 -96 -196 -110 -242 -20 -22 42 -22 418 0 460
23 45 53 60 118 60 53 0 62 -3 92 -33z m640 19 c58 -25 76 -66 73 -168 -3 -73
-6 -90 -25 -110 -29 -31 -29 -35 7 -156 40 -134 40 -134 -12 -130 l-43 3 -31
115 c-26 98 -34 115 -52 118 -21 3 -21 -1 -24 -115 l-3 -118 -40 0 -40 0 -3
288 -2 287 80 0 c48 0 95 -6 115 -14z m345 -4 c49 -26 70 -72 70 -155 0 -115
-41 -167 -134 -167 l-45 0 -3 -117 -3 -118 -42 -3 -43 -3 0 290 0 291 83 0
c61 0 92 -5 117 -18z m459 3 c17 -8 35 -30 45 -55 29 -72 19 -90 -45 -90 -25
0 -29 4 -29 29 0 36 -22 55 -54 47 -28 -7 -40 -43 -27 -79 5 -13 42 -59 81
-101 39 -43 78 -93 86 -112 43 -103 -19 -204 -126 -204 -79 0 -140 58 -140
134 0 19 6 25 35 30 43 8 55 2 55 -29 0 -30 25 -55 54 -55 31 0 46 18 46 56 0
35 -19 63 -94 141 -66 69 -86 107 -86 166 0 54 19 98 52 121 28 20 110 21 147
1z m315 -12 c12 -58 86 -520 86 -537 0 -14 -8 -17 -42 -14 l-43 3 -9 63 -9 63
-46 -3 -46 -3 -10 -60 c-10 -58 -11 -60 -44 -63 -18 -2 -37 0 -42 5 -5 5 -4
35 1 68 60 364 82 489 86 497 3 4 29 8 59 8 50 0 54 -2 59 -27z"/>
<path d="M6366 3174 c-13 -13 -16 -45 -16 -193 0 -160 2 -180 18 -194 22 -20
53 -22 70 -5 8 8 12 67 12 198 0 131 -4 190 -12 198 -17 17 -54 15 -72 -4z"/>
<path d="M4430 3095 c0 -85 0 -85 26 -85 52 0 64 15 64 83 0 72 -10 87 -57 87
l-33 0 0 -85z"/>
<path d="M6700 3095 c0 -85 0 -85 26 -85 52 0 64 15 64 83 0 72 -10 87 -57 87
l-33 0 0 -85z"/>
<path d="M7040 3095 l0 -85 33 0 c47 0 57 15 57 85 0 70 -10 85 -57 85 l-33 0
0 -85z"/>
<path d="M7846 3035 c-4 -36 -9 -79 -13 -95 -5 -28 -4 -30 26 -30 17 0 31 5
31 12 0 33 -25 178 -31 178 -3 0 -9 -29 -13 -65z"/>
<path d="M8924 3251 c-56 -34 -66 -82 -62 -287 2 -148 6 -185 21 -211 44 -82
179 -85 233 -6 17 25 19 48 19 233 0 185 -2 208 -19 233 -39 57 -131 75 -192
38z m114 -73 c8 -8 12 -67 12 -198 0 -199 -3 -210 -50 -210 -47 0 -50 11 -50
210 0 199 3 210 50 210 14 0 31 -5 38 -12z"/>
<path d="M10903 3255 c-57 -25 -63 -51 -63 -275 0 -225 5 -246 64 -274 74 -35
157 -10 189 57 23 48 25 379 3 432 -28 66 -117 94 -193 60z m114 -95 c18 -35
18 -325 0 -360 -16 -32 -65 -40 -84 -14 -18 25 -19 374 -1 392 21 21 71 10 85
-18z"/>
<path d="M12013 3250 c-58 -35 -63 -58 -63 -272 0 -174 2 -196 20 -225 44 -72
153 -85 213 -24 l32 31 3 205 c3 173 1 210 -13 239 -30 62 -127 86 -192 46z
m117 -79 c6 -12 10 -92 10 -191 0 -99 -4 -179 -10 -191 -13 -24 -57 -25 -82
-2 -16 14 -18 34 -18 194 0 148 3 180 16 193 22 23 71 20 84 -3z"/>
<path d="M12360 3258 c-13 -7 -35 -29 -47 -47 -22 -32 -23 -42 -23 -230 0
-177 2 -199 20 -228 44 -72 153 -85 213 -24 l32 31 3 125 4 125 -66 0 -66 0 0
-40 c0 -36 3 -40 25 -40 24 0 25 -3 25 -61 0 -76 -12 -99 -50 -99 -53 0 -60
24 -60 210 0 186 7 210 60 210 34 0 50 -23 50 -69 0 -30 2 -31 41 -31 l41 0
-4 56 c-7 77 -44 116 -120 121 -32 2 -63 -1 -78 -9z"/>
<path d="M12851 3257 c-34 -17 -61 -56 -68 -100 -9 -60 19 -117 103 -204 79
-82 93 -109 78 -152 -19 -53 -104 -33 -104 25 0 21 -4 24 -40 24 -38 0 -40 -2
-40 -30 0 -71 61 -130 135 -130 78 0 135 59 135 140 0 55 -20 90 -97 172 -68
72 -97 125 -86 155 21 58 93 38 93 -26 0 -22 16 -26 58 -15 43 12 17 111 -37
138 -36 19 -97 20 -130 3z"/>
<path d="M13622 3250 c-18 -11 -37 -32 -42 -46 -14 -37 -13 -417 2 -449 20
-43 71 -68 131 -62 42 4 56 10 84 41 30 33 33 41 33 101 l0 65 -40 0 -40 0 0
-46 c0 -60 -14 -84 -48 -84 -50 0 -52 10 -52 210 0 200 3 210 51 210 35 0 47
-16 51 -70 3 -44 4 -45 41 -48 l37 -3 0 56 c0 36 -6 68 -17 86 -34 57 -129 77
-191 39z"/>
<path d="M13963 3255 c-61 -26 -68 -48 -71 -253 -4 -213 5 -256 62 -292 43
-26 111 -26 154 0 54 33 62 66 62 270 0 204 -8 237 -62 270 -38 23 -99 26
-145 5z m105 -77 c17 -17 17 -379 0 -396 -7 -7 -24 -12 -38 -12 -47 0 -50 11
-50 210 0 199 3 210 50 210 14 0 31 -5 38 -12z"/>
<path d="M9210 2980 l0 -280 40 0 39 0 3 113 3 112 51 5 c95 10 134 59 134
170 0 68 -16 108 -56 139 -23 18 -41 21 -120 21 l-94 0 0 -280z m170 190 c19
-12 20 -120 1 -143 -8 -11 -28 -17 -52 -17 l-39 0 0 85 0 85 38 0 c20 0 44 -4
52 -10z"/>
<path d="M9540 2980 l0 -280 121 0 120 0 -3 37 -3 37 -48 -3 c-26 -1 -61 0
-78 4 l-30 7 3 81 3 82 63 3 62 3 0 34 0 34 -62 3 -63 3 -3 77 -3 77 78 3 78
3 3 38 3 37 -120 0 -121 0 0 -280z"/>
<path d="M9840 2980 l0 -280 40 0 40 0 0 115 c0 114 0 115 24 115 21 0 26 -9
50 -97 15 -54 30 -106 32 -115 4 -14 16 -18 48 -18 l43 0 -35 124 -35 124 26
31 c52 63 48 192 -8 248 -33 33 -34 33 -129 33 l-96 0 0 -280z m168 188 c7 -7
12 -38 12 -69 0 -68 -16 -89 -66 -89 l-34 0 0 85 0 85 38 0 c21 0 43 -5 50
-12z"/>
<path d="M10240 3253 c0 -5 -20 -125 -45 -268 -25 -143 -45 -266 -45 -272 0
-8 14 -13 40 -13 38 0 39 2 45 38 14 86 11 82 64 82 l48 0 7 -60 7 -60 45 0
c38 0 45 3 41 18 -3 9 -25 135 -48 280 l-44 262 -57 0 c-32 0 -58 -3 -58 -7z
m76 -219 c20 -129 20 -134 -15 -134 -17 0 -32 3 -35 8 -5 8 26 224 31 218 2
-2 11 -44 19 -92z"/>
<path d="M10500 2980 l0 -280 94 0 c81 0 97 3 121 22 48 37 55 71 55 257 0
258 -15 281 -180 281 l-90 0 0 -280z m183 160 c5 -19 7 -101 5 -182 -3 -162
-9 -177 -64 -181 l-29 -2 -3 203 -2 203 42 -3 c39 -3 43 -6 51 -38z"/>
<path d="M11180 2980 l0 -280 45 0 45 0 0 116 c0 113 0 115 22 112 19 -3 26
-19 52 -115 l31 -113 43 0 c23 0 42 3 42 6 0 3 -16 58 -35 122 -35 114 -35
116 -16 136 33 37 41 63 41 131 0 130 -38 165 -179 165 l-91 0 0 -280z m180
181 c5 -11 10 -40 10 -65 0 -55 -25 -86 -70 -86 l-30 0 0 85 0 85 40 0 c29 0
42 -5 50 -19z"/>
<path d="M11670 2980 l0 -280 115 0 115 0 0 35 c0 21 -5 35 -12 36 -7 1 -40 2
-73 2 l-60 2 -3 243 -2 242 -40 0 -40 0 0 -280z"/>
<path d="M12630 2980 l0 -280 45 0 45 0 0 280 0 280 -45 0 -45 0 0 -280z"/>
<path d="M13082 3223 c3 -38 3 -38 51 -41 l47 -3 0 -240 0 -239 40 0 40 0 0
240 0 240 45 0 45 0 0 40 0 40 -136 0 -135 0 3 -37z"/>
<path d="M13410 2980 l0 -280 40 0 40 0 0 280 0 280 -40 0 -40 0 0 -280z"/>
</g>
</svg>
