<?xml version="1.0" standalone="no"?>
<!DOCTYPE svg PUBLIC "-//W3C//DTD SVG 20010904//EN"
 "http://www.w3.org/TR/2001/REC-SVG-20010904/DTD/svg10.dtd">
<svg version="1.0" xmlns="http://www.w3.org/2000/svg"
 width="1252.000000pt" height="1062.000000pt" viewBox="0 0 1252.000000 1062.000000"
 preserveAspectRatio="xMidYMid meet">

<g transform="translate(0.000000,1062.000000) scale(0.100000,-0.100000)"
fill="#fff" stroke="none">
<path d="M5606 10209 c-727 -75 -1360 -371 -1856 -869 -506 -506 -804 -1149
-871 -1874 -15 -159 -6 -506 16 -666 84 -605 319 -1145 693 -1590 102 -121
300 -314 422 -412 645 -514 1485 -735 2314 -608 986 151 1848 811 2266 1735
264 585 337 1258 205 1885 -66 309 -176 601 -333 879 -70 124 -77 141 -77 191
0 51 6 64 76 180 150 246 217 366 224 402 8 40 -3 68 -43 110 -42 45 -71 45
-258 -7 -266 -74 -243 -70 -262 -52 -14 15 -15 37 -4 231 13 227 10 250 -30
293 -12 12 -36 27 -54 33 -63 21 -93 1 -278 -181 -207 -205 -190 -200 -351
-103 -147 88 -382 202 -535 259 -156 59 -386 118 -566 145 -159 25 -545 35
-698 19z m644 -233 c305 -49 536 -121 792 -249 l143 -72 -255 -5 c-233 -5
-265 -8 -374 -34 -545 -128 -940 -428 -1171 -891 -156 -313 -220 -644 -185
-960 44 -410 13 -658 -115 -904 -176 -338 -552 -611 -925 -672 -94 -15 -291
-12 -395 6 -108 19 -294 79 -339 110 -18 12 -56 30 -84 39 -63 21 -139 88
-169 148 -92 183 -125 732 -68 1111 120 792 564 1498 1215 1932 390 260 805
405 1315 459 91 9 523 -3 615 -18z m1654 -229 c16 -12 16 -25 6 -205 -7 -106
-9 -208 -6 -227 14 -73 53 -74 303 -5 99 27 186 50 193 50 12 0 5 -14 -158
-285 -138 -232 -138 -228 -45 -375 651 -1029 574 -2342 -193 -3300 -89 -111
-306 -328 -414 -414 -490 -391 -1121 -616 -1725 -616 -901 0 -1798 469 -2285
1195 -106 158 -289 507 -290 554 0 18 35 11 147 -33 200 -78 395 -111 603
-103 294 11 529 99 795 298 240 178 423 428 510 693 67 206 86 444 56 722 -44
416 40 788 250 1105 83 125 273 315 398 398 243 161 485 238 781 248 185 6
319 -9 488 -54 123 -33 146 -37 175 -29 14 3 98 87 201 201 97 107 180 195
185 195 4 0 15 -6 25 -13z"/>
<path d="M6715 8741 c-27 -16 -75 -55 -106 -87 -94 -100 -139 -217 -139 -364
0 -307 213 -519 460 -456 272 69 363 410 160 600 -55 51 -131 91 -195 100 -22
4 -76 0 -120 -7 -44 -8 -82 -13 -84 -11 -2 2 -1 14 3 28 4 15 32 45 69 72 34
27 65 53 69 59 23 32 -10 95 -49 95 -10 0 -40 -13 -68 -29z m294 -505 c15 -8
36 -33 46 -55 15 -35 16 -47 6 -80 -24 -82 -114 -116 -188 -71 -64 38 -67 152
-6 199 31 25 100 28 142 7z"/>
<path d="M5730 6514 c-17 -15 -42 -47 -54 -73 -13 -25 -55 -93 -93 -151 -272
-413 -653 -680 -1145 -805 l-128 -32 23 -20 c70 -65 312 -195 479 -257 391
-146 876 -165 1273 -51 258 74 491 190 697 347 102 77 255 223 275 262 27 53
1 111 -65 145 -38 20 -86 -4 -170 -83 -331 -309 -689 -475 -1117 -517 -193
-19 -491 3 -645 47 -65 18 -170 64 -170 73 0 4 21 17 48 30 160 78 363 219
510 356 150 141 315 356 411 538 52 99 54 136 7 183 -43 43 -90 46 -136 8z"/>
<path d="M742 3280 c-108 -29 -188 -75 -267 -155 -82 -82 -127 -154 -166 -267
-47 -138 -62 -250 -56 -433 4 -128 10 -180 31 -260 72 -277 241 -470 466 -530
254 -68 524 23 662 222 53 79 84 210 62 268 -10 25 -62 47 -94 40 -37 -8 -54
-29 -80 -97 -71 -190 -286 -287 -457 -207 -164 78 -257 346 -240 694 15 297
90 485 218 549 85 42 194 32 242 -21 28 -32 32 -86 12 -171 -14 -62 -15 -85
-6 -117 20 -77 80 -117 172 -117 123 0 203 89 202 226 -1 171 -104 297 -300
368 -87 31 -301 35 -401 8z"/>
<path d="M1686 3269 c-71 -20 -97 -80 -72 -164 14 -43 16 -147 16 -733 l0
-683 25 -24 c22 -23 31 -25 125 -25 94 0 103 2 125 25 l25 24 0 368 c0 406 6
456 59 523 77 98 202 89 247 -17 11 -25 14 -108 14 -380 0 -376 5 -419 54
-493 65 -98 217 -105 261 -13 16 34 16 40 1 94 -13 49 -16 115 -16 382 0 343
-6 411 -45 487 -75 146 -261 212 -469 165 -43 -9 -83 -14 -90 -12 -10 4 -15
44 -18 154 -5 158 -20 217 -71 271 -42 45 -115 67 -171 51z"/>
<path d="M4492 3269 c-76 -16 -105 -79 -78 -169 14 -47 16 -142 16 -732 l0
-679 25 -24 c22 -23 31 -25 123 -25 83 0 104 3 123 19 l24 19 0 699 c0 529 -3
708 -12 739 -35 112 -123 174 -221 153z"/>
<path d="M7945 3273 c-86 -18 -112 -80 -80 -187 12 -41 15 -136 15 -556 0
-472 1 -512 20 -584 49 -194 170 -304 362 -329 93 -13 202 0 288 32 205 77
312 299 297 616 -14 300 -133 483 -352 540 -163 42 -277 -4 -245 -100 12 -36
44 -55 95 -55 46 0 86 -37 119 -109 40 -89 56 -180 56 -323 0 -249 -56 -398
-160 -428 -43 -12 -99 2 -128 33 -51 54 -52 71 -52 631 0 286 -5 554 -10 593
-16 121 -69 201 -146 218 -51 12 -59 13 -79 8z"/>
<path d="M10205 3273 c-85 -17 -112 -81 -80 -187 12 -41 15 -135 15 -550 0
-551 3 -587 60 -702 36 -74 110 -146 184 -180 117 -54 292 -55 429 -4 202 76
309 298 294 615 -7 138 -23 212 -72 310 -59 121 -150 196 -282 230 -159 42
-274 -5 -243 -99 12 -37 44 -56 93 -56 62 0 109 -56 147 -176 28 -86 39 -330
20 -441 -13 -81 -56 -177 -92 -211 -53 -48 -140 -48 -185 0 -48 51 -48 51 -53
668 -5 533 -7 589 -24 635 -24 65 -57 109 -98 127 -39 18 -85 26 -113 21z"/>
<path d="M2870 3198 c-135 -70 -87 -278 65 -278 126 0 197 146 117 242 -28 33
-77 58 -115 58 -12 0 -43 -10 -67 -22z"/>
<path d="M3690 2804 c-178 -47 -291 -158 -356 -349 -25 -73 -28 -93 -28 -230
-1 -170 11 -233 69 -352 56 -114 143 -192 264 -235 44 -16 81 -21 171 -21 128
0 193 17 273 72 169 116 219 321 78 321 -30 0 -34 -4 -104 -99 -44 -61 -108
-93 -189 -95 -102 -2 -161 49 -210 179 -20 54 -22 79 -22 235 0 152 3 183 21
238 40 120 100 177 186 177 40 0 52 -5 68 -24 18 -22 20 -34 14 -110 -5 -75
-4 -90 14 -118 42 -67 125 -90 204 -55 68 30 101 85 99 166 -1 115 -64 211
-172 266 -93 47 -270 63 -380 34z"/>
<path d="M5185 2800 c-57 -29 -87 -77 -140 -230 -26 -74 -57 -153 -70 -176
-24 -40 -97 -114 -114 -114 -4 0 -20 -12 -35 -26 -20 -20 -26 -37 -26 -68 0
-38 5 -47 63 -101 50 -47 75 -83 117 -163 63 -124 126 -210 183 -252 118 -87
297 -74 305 21 3 30 -5 44 -49 94 -104 119 -220 290 -260 383 -41 96 -24 135
130 297 85 89 121 151 121 211 0 114 -116 178 -225 124z"/>
<path d="M5995 2814 c-135 -29 -226 -76 -304 -160 -110 -117 -155 -247 -155
-444 0 -197 44 -324 148 -438 101 -108 224 -156 406 -157 128 0 194 13 287 56
123 58 185 148 149 217 -26 50 -88 58 -143 16 -95 -72 -228 -101 -323 -69 -66
22 -125 79 -140 137 -17 63 0 73 137 81 243 13 413 114 459 274 24 84 16 211
-19 284 -65 135 -210 210 -402 208 -44 -1 -89 -3 -100 -5z m121 -180 c68 -32
105 -138 84 -239 -20 -97 -83 -147 -209 -165 -120 -17 -139 3 -128 135 14 161
98 283 195 285 13 0 39 -7 58 -16z"/>
<path d="M7175 2813 c-11 -2 -59 -16 -107 -29 -85 -25 -90 -25 -142 -10 -89
26 -132 22 -172 -18 -39 -39 -42 -64 -19 -153 12 -47 15 -137 15 -489 l0 -433
26 -20 c23 -18 41 -21 119 -21 77 0 96 3 118 20 l25 20 4 382 c5 411 8 438 60
514 63 93 195 94 245 1 16 -29 19 -73 23 -417 5 -378 5 -386 28 -432 56 -114
188 -153 264 -78 33 33 36 69 13 157 -12 45 -15 126 -15 388 0 273 -3 341 -16
385 -37 124 -121 201 -252 229 -51 11 -177 13 -217 4z"/>
<path d="M9298 2805 c-174 -36 -258 -110 -258 -228 0 -51 4 -61 33 -93 80 -87
216 -54 249 60 15 54 32 72 84 92 48 18 105 14 153 -11 49 -25 66 -98 36 -155
-22 -43 -93 -87 -252 -156 -206 -90 -284 -148 -335 -248 -29 -57 -35 -157 -14
-231 56 -191 344 -279 611 -187 l88 31 51 -21 c75 -29 140 -21 179 22 26 30
29 38 24 84 -3 28 -11 71 -16 96 -6 25 -10 174 -11 331 0 257 -2 293 -20 350
-36 115 -127 208 -247 251 -74 27 -257 34 -355 13z m322 -584 c13 -26 13 -226
-1 -291 -18 -82 -70 -131 -154 -143 -92 -14 -155 43 -155 140 0 115 71 206
224 287 59 31 72 32 86 7z"/>
<path d="M11952 2800 c-21 -13 -41 -38 -54 -67 -27 -61 -20 -157 18 -268 23
-65 28 -97 28 -170 -1 -148 -46 -260 -102 -253 -24 3 -40 32 -172 306 -80 166
-161 324 -180 349 -49 65 -97 88 -187 88 -62 0 -76 -3 -95 -23 -34 -34 -30
-85 14 -157 60 -98 384 -783 413 -875 36 -110 46 -287 21 -372 -31 -106 -94
-168 -172 -168 -31 0 -50 6 -65 21 -19 19 -20 28 -14 103 7 83 7 83 -24 118
-75 86 -223 62 -265 -42 -20 -51 -20 -113 0 -172 47 -139 221 -221 416 -197
103 13 181 53 257 135 111 118 220 379 310 739 79 316 115 551 110 707 -4 84
-7 99 -32 137 -49 75 -156 103 -225 61z"/>
<path d="M2794 2756 c-37 -37 -42 -67 -22 -126 8 -24 14 -161 17 -425 6 -379
7 -391 29 -440 29 -63 48 -84 97 -106 84 -39 175 -13 194 55 7 26 5 50 -5 88
-10 40 -14 133 -14 389 0 198 -4 360 -11 395 -24 131 -95 204 -198 204 -47 0
-57 -4 -87 -34z"/>
<path d="M5036 878 c-13 -49 -8 -58 29 -58 28 0 37 5 50 30 23 44 19 50 -29
50 -37 0 -45 -4 -50 -22z"/>
<path d="M5755 788 c-80 -29 -128 -97 -129 -183 -1 -92 66 -169 161 -190 35
-7 98 7 127 28 19 14 19 15 -3 51 -26 41 -23 40 -67 24 -72 -26 -138 43 -114
118 20 59 59 73 135 50 28 -9 74 60 53 79 -34 32 -109 42 -163 23z"/>
<path d="M6535 781 c-76 -35 -115 -95 -115 -177 0 -125 111 -212 233 -183 150
36 196 232 78 332 -57 48 -131 58 -196 28z m117 -92 c11 -6 26 -26 34 -46 27
-64 -17 -133 -86 -133 -36 0 -80 53 -80 95 0 68 74 115 132 84z"/>
<path d="M3417 618 c-37 -95 -67 -179 -67 -186 0 -8 16 -12 45 -12 39 0 46 3
60 30 15 28 19 30 74 30 56 0 59 -1 71 -30 11 -28 16 -30 62 -30 42 0 49 2 44
18 -3 9 -34 91 -69 182 l-64 165 -45 3 -45 3 -66 -173z m131 -15 c12 -36 8
-43 -25 -43 -26 0 -28 12 -12 59 13 36 21 32 37 -16z"/>
<path d="M4170 779 c0 -9 68 -195 125 -341 5 -13 18 -18 50 -18 l42 0 67 173
c36 96 66 179 66 186 0 8 -16 11 -52 9 l-51 -3 -35 -103 c-19 -57 -36 -101
-38 -99 -3 2 -19 49 -38 103 l-33 99 -51 3 c-35 2 -52 -1 -52 -9z"/>
<path d="M5012 608 l3 -183 50 0 50 0 0 180 0 180 -53 3 -52 3 2 -183z"/>
<path d="M7295 778 c-3 -8 -4 -90 -3 -183 l3 -170 123 -3 122 -3 0 46 0 45
-70 0 -69 0 -3 138 -3 137 -48 3 c-32 2 -49 -1 -52 -10z"/>
<path d="M8145 778 c-5 -16 -120 -316 -130 -340 -6 -16 -1 -18 44 -18 49 0 53
2 62 30 11 29 13 30 74 30 61 0 63 -1 74 -30 9 -28 13 -30 60 -30 28 0 51 1
51 3 0 3 -41 111 -101 265 l-41 102 -44 0 c-27 0 -46 -5 -49 -12z m75 -200 c0
-13 -8 -18 -25 -18 -28 0 -31 11 -13 61 l12 34 12 -30 c7 -17 13 -38 14 -47z"/>
<path d="M2844 680 c-55 -22 -70 -95 -29 -135 72 -73 182 33 113 109 -27 29
-55 38 -84 26z"/>
<path d="M8910 677 c-32 -16 -52 -59 -44 -92 22 -90 154 -77 154 15 0 65 -56
105 -110 77z"/>
</g>
</svg>
